Coordinates
version=1
nRows=19
nColumns=24
inDegrees=yes

Units are S.I. units (second, meters, Newtons, ...)
Angles are in degrees.

endheader
time	pelvis_tilt	pelvis_list	pelvis_rotation	pelvis_tx	pelvis_ty	pelvis_tz	hip_flexion_r	hip_adduction_r	hip_rotation_r	knee_angle_r	ankle_angle_r	subtalar_angle_r	mtp_angle_r	hip_flexion_l	hip_adduction_l	hip_rotation_l	knee_angle_l	ankle_angle_l	subtalar_angle_l	mtp_angle_l	lumbar_extension	lumbar_bending	lumbar_rotation
      0.87566667	     -0.33420099	     -5.28776927	      9.44211263	     -0.40611783	      1.02835473	      0.27889266	      9.15561264	     11.98775941	     -4.12993264	    -12.74913516	      3.02335633	    -14.48937304	      1.87499081	     11.82973780	     -8.70685794	      2.81081659	    -65.02066406	     -7.80369283	      5.23969013	      5.71936300	     -0.13632598	      2.87744125	     -6.24449232
      0.87983333	     -0.32933672	     -5.18543362	      9.43868736	     -0.40128119	      1.02908536	      0.27898303	      8.63805172	     11.93869058	     -4.10531851	    -12.36222423	      3.09788658	    -14.34953728	      1.87704879	     12.50219026	     -8.54115803	      2.86376964	    -65.11491315	     -6.78974297	      4.83526619	      5.72722824	     -0.22439176	      2.77449312	     -6.15657039
      0.88400000	     -0.30962014	     -5.08977437	      9.41504085	     -0.39649927	      1.02979128	      0.27912066	      8.12478828	     11.90005202	     -4.08858663	    -12.01241871	      3.18953884	    -14.17086626	      1.87901925	     13.15404375	     -8.39417773	      2.88247995	    -65.17129265	     -5.78465507	      4.45737066	      5.70540468	     -0.37831808	      2.68493970	     -5.99911890
      0.88816667	     -0.29443831	     -4.97185982	      9.37622410	     -0.39163485	      1.03052327	      0.27924919	      7.58501140	     11.84017225	     -4.02895371	    -11.61716176	      3.27302463	    -14.01548680	      1.88019359	     13.77242648	     -8.21268257	      2.88630225	    -65.13772040	     -4.89711467	      3.98391359	      5.69197312	     -0.44720377	      2.57397852	     -5.90168409
      0.89233333	     -0.21720460	     -4.84242622	      9.30915486	     -0.38683807	      1.03131120	      0.27942659	      6.99249052	     11.77917145	     -3.96045616	    -11.25497520	      3.39966421	    -13.78534302	      1.87543347	     14.30682824	     -8.03581252	      2.85025503	    -65.05303479	     -4.06258837	      3.47633172	      5.56172701	     -0.65949827	      2.45081742	     -5.59828779
      0.89650000	     -0.17871171	     -4.70501531	      9.22391432	     -0.38203193	      1.03202714	      0.27962241	      6.44168253	     11.70489883	     -3.85928486	    -10.89875863	      3.49294263	    -13.61770455	      1.86157470	     14.86391139	     -7.83989239	      2.79916051	    -64.90911761	     -3.30774308	      2.90968470	      5.36619908	     -0.81003467	      2.31508569	     -5.38775305
      0.90066667	     -0.18598389	     -4.58766708	      9.12910844	     -0.37722715	      1.03261902	      0.27984343	      5.94726669	     11.64528454	     -3.75197127	    -10.54661532	      3.56515057	    -13.49151278	      1.85965313	     15.46748166	     -7.66138971	      2.74155337	    -64.73134821	     -2.55287843	      2.39513778	      5.33388459	     -0.87760774	      2.20753653	     -5.32309992
      0.90483333	     -0.11050088	     -4.43528715	      8.99983665	     -0.37244284	      1.03335226	      0.28010666	      5.35156579	     11.56495345	     -3.58294002	    -10.18796604	      3.66434785	    -13.34108044	      1.84317169	     15.93970659	     -7.45896298	      2.64760813	    -64.46228870	     -1.94860196	      1.73940085	      5.16975969	     -1.09234062	      2.05585722	     -5.02567966
      0.90900000	     -0.06281736	     -4.29794982	      8.85942233	     -0.36766983	      1.03398733	      0.28039123	      4.79635725	     11.49484169	     -3.40828302	     -9.84335893	      3.74675925	    -13.21109352	      1.82016423	     16.43597479	     -7.27221187	      2.54523089	    -64.15729082	     -1.34333552	      1.13776646	      4.98692534	     -1.25810845	      1.92183196	     -4.77999045
      0.91316667	     -0.03581187	     -4.15269538	      8.69969927	     -0.36290933	      1.03457004	      0.28070529	      4.26757708	     11.41131646	     -3.21585562	     -9.51068842	      3.82776658	    -13.09079947	      1.79259876	     16.93361469	     -7.07376300	      2.43105907	    -63.79295071	     -0.78557165	      0.53325332	      4.79535055	     -1.39799926	      1.77613932	     -4.54299646
      0.91733333	     -0.00258144	     -4.00846271	      8.51919288	     -0.35819827	      1.03513561	      0.28104711	      3.74889994	     11.32761709	     -3.00698641	     -9.20969065	      3.91160529	    -12.97636720	      1.77216399	     17.40972552	     -6.87995945	      2.30222465	    -63.37896106	     -0.24417244	     -0.06923724	      4.66704240	     -1.58751496	      1.64304156	     -4.34774684
      0.92150000	      0.07612044	     -3.84368962	      8.33016194	     -0.35344648	      1.03575662	      0.28141598	      3.15798895	     11.22911594	     -2.77511580	     -8.87004949	      3.99482241	    -12.86271999	      1.74212442	     17.80206291	     -6.67522762	      2.16122198	    -62.88456442	      0.21090788	     -0.68807162	      4.50168936	     -1.78572842	      1.47618222	     -4.05959559
      0.92566667	      0.11695762	     -3.68907291	      8.12801078	     -0.34871053	      1.03627785	      0.28179927	      2.61714497	     11.13225635	     -2.53185101	     -8.54327934	      4.06811359	    -12.76399257	      1.70132537	     18.22363521	     -6.47517435	      2.01888366	    -62.34594521	      0.64779807	     -1.27938835	      4.30366225	     -1.93454674	      1.31617700	     -3.76046817
      0.92983333	      0.15046457	     -3.54366998	      7.91200969	     -0.34399829	      1.03675426	      0.28221078	      2.09484237	     11.04110076	     -2.27746617	     -8.23499212	      4.14564409	    -12.66765395	      1.65792175	     18.63828534	     -6.28797534	      1.87183966	    -61.75672714	      1.06835183	     -1.84703163	      4.11525663	     -2.09650927	      1.16991733	     -3.48875248
      0.93400000	      0.19239510	     -3.38874918	      7.68445893	     -0.33930808	      1.03721748	      0.28263079	      1.56661001	     10.93654158	     -2.01156055	     -7.93234214	      4.22246188	    -12.57474743	      1.60835903	     19.02074012	     -6.09200279	      1.71927505	    -61.10501918	      1.46335990	     -2.40130066	      3.92088249	     -2.26514820	      1.01190796	     -3.19750247
      0.93816667	      0.24189139	     -3.23091857	      7.44665565	     -0.33462449	      1.03766924	      0.28307149	      1.03242636	     10.82628879	     -1.73785196	     -7.63474339	      4.30032519	    -12.48106720	      1.55333127	     19.37224188	     -5.89559547	      1.56360644	    -60.39273596	      1.83167108	     -2.93395162	      3.72624275	     -2.44724997	      0.85224383	     -2.90284907
      0.94233333	      0.24873037	     -3.07347384	      7.18707441	     -0.32997988	      1.03801507	      0.28354455	      0.56653472	     10.70580466	     -1.45641753	     -7.38034691	      4.40219985	    -12.39419652	      1.51394656	     19.75205400	     -5.69840301	      1.39813635	    -59.62880897	      2.19941964	     -3.42343166	      3.59454493	     -2.59978332	      0.70066807	     -2.67020865
      0.94650000	      0.29994331	     -2.92949397	      6.94375257	     -0.32529868	      1.03839901	      0.28399148	      0.03178874	     10.60109837	     -1.19773756	     -7.07079652	      4.42604996	    -12.30864187	      1.41266272	     20.06603024	     -5.52060925	      1.24663893	    -58.80806842	      2.53727698	     -3.91924215	      3.30769934	     -2.76637435	      0.54487512	     -2.25052232
      0.95066667	      0.31797038	     -2.78130642	      6.68590193	     -0.32064364	      1.03869123	      0.28446056	     -0.45394699	     10.48373943	     -0.91237271	     -6.79159805	      4.51919381	    -12.22386873	      1.30687721	     20.39545056	     -5.33592037	      1.09170280	    -57.93069483	      2.84740514	     -4.37429773	      3.02604457	     -2.91156566	      0.38646587	     -1.95612418
